<mxfile host="app.diagrams.net" modified="2024-04-22T03:15:59.259Z" agent="Mozilla/5.0 (Macintosh; Intel Mac OS X 10_15_7) AppleWebKit/537.36 (KHTML, like Gecko) Chrome/124.0.0.0 Safari/537.36" version="24.2.7" etag="9uc9dnRl1_g2lJoh4h53" type="github">
  <diagram name="Page-1" id="EiGKrVLiJtsSm1gb2ONS">
    <mxGraphModel>
      <root>
        <mxCell id="0" />
        <mxCell id="1" parent="0" />
      </root>
    </mxGraphModel>
  </diagram>
</mxfile>
